<svg id="Layer_1" data-name="Layer 1" xmlns="http://www.w3.org/2000/svg" viewBox="0 0 234.50202 145.42061"><defs>
<style>


.cls-1{
    fill: black;
    position:absolute;
}

.stick:hover {
    transform: scaleX(0.95);
    opacity:0.8;
    transition: all .2s ease-in; }

.right-btns:hover{
    transform: scaleY(0.99);
    opacity:0.8;
    transition: all .2s ease-in; 
}

.dpad:hover{
    opacity:0.8;
}

#triangle-btn:hover{
    fill:green;
}

#circle-btn:hover{
    fill:red;
}

#x-btn:hover{
    fill:blue;
}

#square-btn:hover{
    fill:purple;
}

</style></defs>
<title>controller</title>
<g id="controller">
<path id="pslogo" class="cls-1" d="M123.28,67.20093a12.48133,12.48133,0,1,0,12.48133,12.48132A12.49462,12.49462,0,0,0,123.28,67.20093ZM120.0768,84.374c-.00484.08634-.18037.21467-.29133.23444a10.72945,10.72945,0,0,1-5.749-.60246,2.27778,2.27778,0,0,1-.45194-.25664.88647.88647,0,0,1,.01735-1.63023,5.21864,5.21864,0,0,1,1.00033-.51571c1.79043-.65976,3.58569-1.29934,5.475-1.97806,0,.66419.01251,1.27432-.01493,1.884-.00483.08435-.19772.18805-.3208.23243-.99025.36276-1.98815.70859-2.9784,1.07417a5.8357,5.8357,0,0,0-.65693.341c.00484.05408.00767.111.01251.165a1.8449,1.8449,0,0,0,.65209.21225,12.29685,12.29685,0,0,0,1.82755-.24654,13.63373,13.63373,0,0,0,1.49142-.51853C120.08931,83.34663,120.10424,83.86314,120.0768,84.374Zm4.02554-10.47342a1.51754,1.51754,0,0,0-.04963.55566V86.572c-1.12622-.35832-2.16811-.684-3.208-1.02736a.38624.38624,0,0,1-.18037-.2522,1.5501,1.5501,0,0,1-.0121-.38778q.00726-6.79005.01492-13.58214v-.53345c.3087.06175.57785.09362.83448.16786,1.46963.42935,2.93884.8595,4.39838,1.31629a6.01732,6.01732,0,0,1,1.09638.5161,3.72217,3.72217,0,0,1,1.98572,2.93159,6.067,6.067,0,0,1-.1384,2.704c-.49875,1.50433-1.88445,1.92883-3.34358,1.23518-.1138-.05448-.18805-.30385-.19046-.462-.01211-1.53379.00524-3.06757-.01735-4.601a1.88227,1.88227,0,0,0-.23969-.89623.69744.69744,0,0,0-.58026-.25462C124.32709,73.46358,124.179,73.7178,124.10234,73.90059Zm8.79395,7.60882c.78767.52134.8248,1.15569.03188,1.66734a7.95561,7.95561,0,0,1-1.59755.753c-2.11405.778-4.2402,1.531-6.36192,2.292-.09361.03188-.19006.05165-.35792.096,0-.62747-.01735-1.19039.01453-1.75087.00767-.11621.18805-.272.3212-.3212,1.53379-.5605,3.072-1.10363,4.61064-1.652a3.89651,3.89651,0,0,0,.60246-.23969,1.31508,1.31508,0,0,0,.28166-.29417c-.10654-.0815-.20258-.20741-.3212-.23727a3.44506,3.44506,0,0,0-2.00268.14123c-.9955.34541-1.98816.70092-2.98365,1.05158-.14567.05205-.29619.09644-.51328.16544,0-.67428-.00968-1.28885.00968-1.90421.00243-.08111.15293-.19975.257-.232a10.75688,10.75688,0,0,1,7.70968.29174A2.072,2.072,0,0,1,132.89629,81.50941Z" transform="translate(-6.0299 -4.86812)"/>

<path id="o-fill" class="cls-1" d="M115.1603,42.50056a3.20813,3.20813,0,0,0,1.83239.59,3.48372,3.48372,0,0,0,1.25212-.20983c.027-.00968.04681-.02986.07425-.03954.00484-.00243.00968,0,.01492-.00243a2.77184,2.77184,0,0,0,1.33122-.99024,2.12585,2.12585,0,0,0,.28409-2.06482,2.39252,2.39252,0,0,0-.99791-1.20492,3.515,3.515,0,0,0-.69406-.33815,3.33047,3.33047,0,0,0-2.28675-.04438,2.76267,2.76267,0,0,0-1.3978.97329,2.177,2.177,0,0,0-.35832,2.11123A2.4726,2.4726,0,0,0,115.1603,42.50056Z" transform="translate(-6.0299 -4.86812)"/>

<path id="left-stick" class="cls-1 stick" d="M86.78506,77.36564a13.86763,13.86763,0,1,0,13.86662,13.86863A13.885,13.885,0,0,0,86.78506,77.36564Z" transform="translate(-6.0299 -4.86812)"/>

<path id="right-stick" class="cls-1 stick" d="M159.92093,77.36564a13.86763,13.86763,0,1,0,13.86863,13.86863A13.885,13.885,0,0,0,159.92093,77.36564Z" transform="translate(-6.0299 -4.86812)"/>

<rect id="select-btn" class="cls-1 right-btns" x="92.00373" y="51.81219" width="7.62858" height="3.11155"/>

<polygon id="start-btn" class="cls-1 right-btns" points="134.401 54.966 140.901 53.015 134.401 51.252 134.401 54.966"/>

<circle id="circle-btn" class="cls-1 right-btns" cx="206.78626" cy="52.77297" r="8.01595"/>

<circle id="square-btn" class="cls-1 right-btns" cx="169.16029" cy="52.77297" r="8.01595"/>

<circle id="x-btn" class="cls-1 right-btns" cx="187.97328" cy="71.58596" r="8.01595"/>

<circle id="triangle-btn" class="cls-1 right-btns" cx="187.97328" cy="33.95999" r="8.01595"/>

<path id="d-down" class="cls-1 dpad" d="M52.03862,63.46714c-2.03738,1.49143-4.16878,3.26974-4.48232,3.90166-.54839,1.09435-1.3062,6.96438-1.163,8.9719.02946.42733.12106,1.72142,5.63559,1.72344l.01694,1.23518V78.06414c5.51453-.00243,5.60815-1.29652,5.63559-1.72142.14566-2.00793-.615-7.87755-1.163-8.97432C56.20215,66.73647,54.07358,64.961,52.03862,63.46714Z" transform="translate(-6.0299 -4.86812)"/>

<path id="d-right" class="cls-1 dpad" d="M69.503,53.23544c-.15294-.0121-.33089-.01735-.53063-.01735-2.56116,0-7.453.68155-8.44329,1.1807-.63474.316-2.41266,2.44494-3.90448,4.4799,1.49142,2.03738,3.26974,4.16837,3.90448,4.48191.99024.49634,5.885,1.1807,8.44329,1.1807.20014,0,.37769-.00524.52861-.01735.42733-.02946,1.7186-.121,1.72142-5.63558C71.21921,53.35408,69.92794,53.26289,69.503,53.23544Z" transform="translate(-6.0299 -4.86812)"/>

<path id="d-left" class="cls-1 dpad" d="M43.5457,54.396c-.99266-.49593-5.885-1.18029-8.44329-1.18029-.20015,0-.3781.00484-.52861.01735-.42733.02946-1.72142.12105-1.72385,5.63558.00242,5.53148,1.29652,5.62308,1.72143,5.65294.15333.0121.33088.01694.531.01694,2.55833,0,7.45063-.68356,8.44329-1.18029.63232-.316,2.41023-2.44494,3.90165-4.48191C45.95593,56.84374,44.18,54.71233,43.5457,54.396Z" transform="translate(-6.0299 -4.86812)"/>

<path id="d-up" class="cls-1 dpad" d="M52.03862,54.29025c2.03254-1.49181,4.16595-3.26973,4.47989-3.90447.548-1.09152,1.3062-6.96156,1.163-8.9719-.02946-.42733-.12106-1.719-5.63559-1.72143-5.53147.00242-5.62307,1.29409-5.65253,1.71859-.14567,2.01035.61456,7.88038,1.163,8.97432C47.86984,51.02052,49.99841,52.79844,52.03862,54.29025Z" transform="translate(-6.0299 -4.86812)"/>

<path id="body" class="cls-1 body" d="M232.506,57.82631c-.98541-7.38646-4.10462-21.01338-17.5661-30.37065l-3.28467-12.64153s-.32806-3.11882-4.43268-5.41808c0,0,.247-2.13382-3.52879-3.11922a39.66452,39.66452,0,0,0-22.81875.57542s-1.56083.41-1.47931,2.70884c0,0-4.84266,2.38077-5.82806,6.81346-.985,4.43268-2.29886,10.01379-2.29886,10.01379H75.292s-1.31387-5.58111-2.29927-10.01379-5.82806-6.81346-5.82806-6.81346c.08151-2.29927-1.47931-2.70884-1.47931-2.70884a39.662,39.662,0,0,0-22.81874-.57542c-3.77616.9854-3.5288,3.11882-3.5288,3.11882-4.10462,2.29926-4.43309,5.41848-4.43309,5.41848L31.62043,27.45566C18.159,36.81252,15.03972,50.43984,14.05432,57.82631c-.9854,7.3893-7.38888,55.98257-7.88037,61.72671-.49391,5.74655-.82238,27.25143,18.87956,30.37064,19.70235,3.11882,30.04461-14.77535,30.04461-14.77535l13.29846-23.0657c29.71372,23.0657,43.83456-8.29,43.83456-8.29h22.10007s14.11842,31.35564,43.83456,8.29l13.29845,23.0657s10.34267,17.89456,30.04462,14.77535c19.69953-3.11882,19.37145-24.62652,18.88-30.37065C239.89247,113.80647,233.489,65.21277,232.506,57.82631Zm-38.50283-29.4837a10.48551,10.48551,0,1,1-10.48549,10.48551A10.49826,10.49826,0,0,1,194.00318,28.34261ZM134.0794,37.4747h4.56867c.01453.05206.01978.80019.00484.914-.025.00242-.05165.00484-.07869.00484h-.46929a.358.358,0,0,0-.05206.00242c-.06133.01008-.09845.04963-.08393.111a.38954.38954,0,0,0,.05689.13841,1.67357,1.67357,0,0,0,.15818.19288c.44953.49149.89662.98056,1.34615,1.46964a.35024.35024,0,0,0,.042.03712c.01977-.02219.03994-.042.05689-.06174q.76326-.83347,1.5237-1.66695c.00968-.01251.02259-.027.03227-.042a.09773.09773,0,0,0-.02259-.14082.1993.1993,0,0,0-.13316-.03955c-.15818.00242-.31879,0-.477,0-.02219,0-.04438-.00484-.07142-.00767v-.91357h3.70433v.9164h-.98258a.153.153,0,0,0-.11864.04963q-1.45933,1.55559-2.91907,3.11156a.14143.14143,0,0,0-.044.1138v1.19765a.37212.37212,0,0,0,.00242.05165.135.135,0,0,0,.12591.13558.78249.78249,0,0,0,.10653,0H141.371l.03429.00484v.82H136.921v-.82722h.94828c.03228,0,.06175,0,.0916-.00242a.15518.15518,0,0,0,.15051-.16061V41.587a.15918.15918,0,0,0-.04681-.121q-1.38549-1.515-2.76331-3.03a.15253.15253,0,0,0-.12389-.05448c-.33573.00242-.67146,0-1.0076,0H134.081C134.0794,38.0824,134.0794,37.781,134.0794,37.4747Zm-11.06859-.00242c.03429-.00242.06416-.00242.09845-.00242h3.04013c.04438,0,.0916.00242.136,0a.1676.1676,0,0,1,.13558.04964c.27682.25422.55848.506.83732.75821q1.719,1.54832,3.43518,3.09663c.02219.01977.04438.03954.08151.07183,0-.04439.00242-.07425.00242-.10129v-2.6471a.25253.25253,0,0,0-.13074-.23243.47911.47911,0,0,0-.25947-.07143h-.93576v-.90873l.00484-.00524.00282-.00484q1.9-.00363,3.80036-.00484s.02946.00242.04963.00242v.91881h-.08151c-.27439,0-.546,0-.82-.00242-.22961,0-.33089.09645-.341.32847V43.906c-.02945.00242-.05165.00484-.07142.00484h-1.28926a.1462.1462,0,0,1-.10855-.042q-2.46349-2.19293-4.927-4.38346c-.01978-.01735-.042-.0347-.07425-.06174v3.38555a1.25039,1.25039,0,0,0,.00968.12832.09512.09512,0,0,0,.08676.08393,1.16962,1.16962,0,0,0,.165.00968h1.01284v.872H123.035v-.872h.92609a.6737.6737,0,0,0,.09886-.00484.17561.17561,0,0,0,.1602-.18037V38.52183a.16891.16891,0,0,0-.1602-.19288.95584.95584,0,0,0-.16544-.01493c-.26149-.00242-.52619,0-.78768,0h-.09361C123.01081,38.0356,123.01081,37.75878,123.01081,37.47228ZM112.5943,39.063a3.86143,3.86143,0,0,1,1.02495-1.09395,5.49215,5.49215,0,0,1,1.84934-.86434,6.60289,6.60289,0,0,1,2.0277-.20983,6.22785,6.22785,0,0,1,2.42031.58793,4.57347,4.57347,0,0,1,1.41758,1.02252,3.13932,3.13932,0,0,1,.75821,1.33848,2.717,2.717,0,0,1-.21992,1.98533,3.70239,3.70239,0,0,1-1.12623,1.29167,5.43338,5.43338,0,0,1-1.88929.88169,6.38827,6.38827,0,0,1-1.2025.1949c-.15818.00968-.31878.00243-.47655.00243v.00726c-.205-.00726-.41-.00242-.61255-.02219a5.79332,5.79332,0,0,1-2.934-1.04471,3.71077,3.71077,0,0,1-1.11372-1.23478,2.77439,2.77439,0,0,1-.35308-1.43249A2.81544,2.81544,0,0,1,112.5943,39.063Zm-68.66848,2.173c.28408-4.00818,5.76148-4.0102,8.10029-4.013,2.35576.00242,7.83356.00484,8.11724,4.01544.15334,2.14109-.56775,8.55708-1.41757,10.25106-.77032,1.54348-4.59853,4.34876-5.8898,5.26516a1.25291,1.25291,0,0,1-.3208.19772,1.301,1.301,0,0,1-.47939.09361.815.815,0,0,1-.08151-.00282,1.20267,1.20267,0,0,1-.47414-.12791,1.39,1.39,0,0,1-.24937-.1606c-1.28885-.91842-5.11706-3.72168-5.88738-5.26475C44.4964,49.79542,43.77288,43.37943,43.92582,41.23592Zm-9.53,25.75235c-4.0102-.28409-4.013-5.76108-4.01545-8.09989.00242-2.35616.00484-7.83356,4.01787-8.11765.20014-.01492.437-.02219.70374-.02219,2.28191,0,7.88037.60771,9.54732,1.43976,1.541.77033,4.34391,4.59329,5.26031,5.88738a1.328,1.328,0,0,1,.14809.21226,1.27258,1.27258,0,0,1,.14567.68638,1.24251,1.24251,0,0,1-.18037.55807,1.15681,1.15681,0,0,1-.11339.15575c-.91882,1.2941-3.71926,5.11222-5.25789,5.88254-1.66694.83207-7.2654,1.43977-9.54732,1.43977C34.83569,67.01086,34.59841,67.0032,34.39585,66.98827Zm25.74992,9.53c-.28408,4.0106-5.76148,4.013-8.10029,4.01544h-.00726c-2.3485-.00243-7.82631-.00484-8.11-4.01787-.15294-2.13866.56815-8.55183,1.41757-10.25106.77073-1.53823,4.58844-4.33906,5.885-5.2599a1.3219,1.3219,0,0,1,.15092-.109,1.19656,1.19656,0,0,1,.80987-.17755,1.149,1.149,0,0,1,.43459.1384,1.23309,1.23309,0,0,1,.2296.15536c1.30378.92609,5.107,3.71684,5.87528,5.253C59.5756,67.964,60.29911,74.37756,60.14577,76.51824ZM68.972,67.01086c-2.28434,0-7.8828-.6077-9.54732-1.43976-1.54105-.77032-4.34633-4.59328-5.26273-5.88738a1.05563,1.05563,0,0,1-.16061-.24453,1.22175,1.22175,0,0,1-.12832-.6767,1.24217,1.24217,0,0,1,.08636-.36076,1.26041,1.26041,0,0,1,.20741-.33815c.92366-1.29934,3.71926-5.107,5.25748-5.8777,1.66453-.83207,7.263-1.43976,9.54732-1.43976.26673,0,.504.00726.70617.02219,4.00817.28408,4.01059,5.76147,4.013,8.10029-.00242,2.35577-.00484,7.83316-4.01544,8.11724C69.476,67.0032,69.23873,67.01086,68.972,67.01086Zm17.81306,40.562A16.33718,16.33718,0,1,1,103.12083,91.2371,16.35664,16.35664,0,0,1,86.78506,107.57287ZM108.12933,60.2886a1.97616,1.97616,0,0,1-1.97564,1.97323H97.53488a1.97539,1.97539,0,0,1-1.97322-1.97323V56.18438a1.976,1.976,0,0,1,1.97322-1.97362h8.61881a1.97624,1.97624,0,0,1,1.97564,1.97362Zm-.0347-16.22238a7.45653,7.45653,0,0,1-1.10121.0916,4.15208,4.15208,0,0,1-.67913-.06416,16.76943,16.76943,0,0,1-2.1661-.51126,1.36758,1.36758,0,0,1-.27157-.111.53291.53291,0,0,0-.28892-.04438v.40473h-1.08911c-.01735-.05165-.02462-2.3832-.00767-2.52644.05448-.01493.95837-.017,1.03463-.00243.00767.069.01493.1384.027.20741a1.28853,1.28853,0,0,0,.4249.72594,2.59261,2.59261,0,0,0,.82.49391,4.96775,4.96775,0,0,0,1.06691.2865,7.28485,7.28485,0,0,0,1.46438.0916,3.19276,3.19276,0,0,0,1.08184-.20983,1.59077,1.59077,0,0,0,.51853-.3212,1.01122,1.01122,0,0,0,.20014-.25422.19214.19214,0,0,0,.01977-.1384.519.519,0,0,0-.19248-.3087,1.25493,1.25493,0,0,0-.32362-.18037,3.64471,3.64471,0,0,0-.72352-.19289c-.4124-.07667-.82722-.12347-1.24446-.17028-.59519-.069-1.18756-.13074-1.77792-.23969a6.16416,6.16416,0,0,1-1.3877-.395,2.21275,2.21275,0,0,1-.72594-.48423,1.39109,1.39109,0,0,1-.395-.97773,1.627,1.627,0,0,1,.504-1.2025,2.94252,2.94252,0,0,1,.77032-.546,5.37993,5.37993,0,0,1,1.32113-.45437,6.49745,6.49745,0,0,1,1.43734-.15293,6.301,6.301,0,0,1,1.12139.12106,8.10841,8.10841,0,0,1,1.55558.464c.1037.042.20014.09886.30142.14325a.27068.27068,0,0,0,.11622.02219c.07667-.00484.09886-.03228.09886-.111v-.232a9.391,9.391,0,0,1,.95554-.00484v2.22744h-.92366c-.00243-.0343-.00767-.06415-.01251-.09644a1.13627,1.13627,0,0,0-.3555-.67912,2.07889,2.07889,0,0,0-.63716-.40272,4.36674,4.36674,0,0,0-.99509-.28408,7.09358,7.09358,0,0,0-1.46438-.10612,5.15709,5.15709,0,0,0-1.08184.13114,1.95988,1.95988,0,0,0-.42006.15293.86453.86453,0,0,0-.25947.19249.52784.52784,0,0,0-.13841.32846.29422.29422,0,0,0,.11379.25947.97045.97045,0,0,0,.21952.12832,2.52715,2.52715,0,0,0,.57058.15091c.38254.06658.77032.10088,1.15811.138.61738.06174,1.23719.11864,1.84974.22719a6.471,6.471,0,0,1,1.38529.38011,2.76577,2.76577,0,0,1,.778.46405,1.78264,1.78264,0,0,1-.01937,2.702,3.25386,3.25386,0,0,1-.96563.546A6.06312,6.06312,0,0,1,108.09463,44.06622ZM123.28,93.39554a13.7159,13.7159,0,1,1,13.7157-13.7157A13.7314,13.7314,0,0,1,123.28,93.39554ZM140.288,62.4543a1.15887,1.15887,0,0,1-.3559.052,1.97591,1.97591,0,0,1-1.97322-1.97322V55.44351a1.93305,1.93305,0,0,1,2.29644-1.93126l10.58962,2.87428a1.2339,1.2339,0,0,1,.91115,1.19039,1.97713,1.97713,0,0,1-1.75087,1.96072Zm19.63294,45.11857A16.33718,16.33718,0,1,1,176.25912,91.2371,16.35664,16.35664,0,0,1,159.92093,107.57287ZM175.19019,68.127a10.4855,10.4855,0,1,1,10.48551-10.4855A10.49834,10.49834,0,0,1,175.19019,68.127Zm18.813,18.813a10.48551,10.48551,0,1,1,10.48549-10.48552A10.498,10.498,0,0,1,194.00318,86.94Zm18.813-18.813a10.4855,10.4855,0,1,1,10.48551-10.4855A10.498,10.498,0,0,1,212.81615,68.127Z" transform="translate(-6.0299 -4.86812)"/>
</g>
</svg>