<?xml version="1.0" encoding="utf-8"?>
<!-- Generator: Adobe Illustrator 24.0.0, SVG Export Plug-In . SVG Version: 6.00 Build 0)  -->
<svg version="1.1" id="delorean" xmlns="http://www.w3.org/2000/svg" xmlns:xlink="http://www.w3.org/1999/xlink" x="0px" y="0px"
	 viewBox="0 0 103.27 54.96" style="enable-background:new 0 0 103.27 54.96;" xml:space="preserve">
<style type="text/css">
	.st0{fill:none;stroke:#666666;stroke-width:1.75;stroke-miterlimit:10;}
	.st1{fill:#666666;}
	.st2{fill:none;stroke:#666666;stroke-width:1.25;stroke-linecap:round;stroke-linejoin:round;stroke-miterlimit:10;}
</style>
<g id="mirrors">
	<path id="left_mirror" class="st0" d="M14.77,15.32H8.11c-1.09,0-1.98-0.89-1.98-1.98V11.6c0-1.09,0.89-1.98,1.98-1.98h4.7
		c2.12,0,3.83,1.71,3.83,3.83v0C16.65,14.48,15.81,15.32,14.77,15.32z"/>
	<path id="right_mirror" class="st0" d="M89.03,15.32h6.66c1.09,0,1.98-0.89,1.98-1.98V11.6c0-1.09-0.89-1.98-1.98-1.98h-4.7
		c-2.12,0-3.83,1.71-3.83,3.83v0C87.16,14.48,87.99,15.32,89.03,15.32z"/>
</g>
<g id="tires">
	<path id="left_tire" class="st1" d="M6.13,41.81c0,0,0.77,8.04,6.77,8.04s16.91,0,16.91,0s0.65,5.18-1.21,5.11
		c-6.19-0.26-19.96-0.9-27.11-1.98C0.82,52.87,0,52.09,0,51.41l0.07-7.3c0-1.01,0.66-1.91,1.63-2.19
		C2.62,41.66,4.03,41.52,6.13,41.81z"/>
	<path id="right_tire" class="st1" d="M97.13,41.81c0,0-0.77,8.04-6.77,8.04s-16.91,0-16.91,0s-0.65,5.18,1.21,5.11
		c6.19-0.26,19.96-0.9,27.11-1.98c0.68-0.1,1.5-0.88,1.5-1.57l-0.07-7.3c0-1.01-0.66-1.91-1.63-2.19
		C100.65,41.66,99.24,41.52,97.13,41.81z"/>
</g>
<path id="bumper" class="st1" d="M89.84,47.91H13.45c-3.2,0-5.79-2.59-5.79-5.79v-1.28h87.96v1.28
	C95.62,45.32,93.03,47.91,89.84,47.91z"/>
<path id="car_front" class="st1" d="M95.28,27.4H8.52c-1.31,0-2.38,1.07-2.38,2.38v6.89c0,1.31,1.07,2.38,2.38,2.38h86.77
	c1.31,0,2.38-1.07,2.38-2.38v-6.89C97.67,28.48,96.59,27.4,95.28,27.4z M21.92,35.53c0,1.1-0.9,2-2,2h-9c-1.1,0-2-0.9-2-2v-4
	c0-1.1,0.9-2,2-2h9c1.1,0,2,0.9,2,2V35.53z M37.24,35.53c0,1.1-0.9,2-2,2h-9c-1.1,0-2-0.9-2-2v-4c0-1.1,0.9-2,2-2h9c1.1,0,2,0.9,2,2
	V35.53z M58.51,34.15c0,0.41-0.34,0.74-0.74,0.74h-11.6c-0.41,0-0.74-0.34-0.74-0.74v-0.98c0-0.41,0.34-0.74,0.74-0.74h11.6
	c0.41,0,0.74,0.34,0.74,0.74V34.15z M79.45,35.53c0,1.1-0.9,2-2,2h-9c-1.1,0-2-0.9-2-2v-4c0-1.1,0.9-2,2-2h9c1.1,0,2,0.9,2,2V35.53z
	 M94.77,35.53c0,1.1-0.9,2-2,2h-9c-1.1,0-2-0.9-2-2v-4c0-1.1,0.9-2,2-2h9c1.1,0,2,0.9,2,2V35.53z"/>
<path id="upper_car" class="st1" d="M72.7,1.56C71.77,0.57,70.47,0,69.1,0H34.31c-1.36,0-2.66,0.56-3.59,1.55L7.54,26.47H95.5
	L72.7,1.56z M21.37,14.66l8.54-10.28c0.33-0.4,0.83-0.63,1.35-0.63h40.96c0.49,0,0.95,0.2,1.29,0.56l9.57,10.33
	c0.24,0.26,0.06,0.68-0.3,0.68H21.68C21.33,15.32,21.15,14.92,21.37,14.66z M12.68,24.09l5.74-6.1c0.33-0.35,0.79-0.55,1.27-0.55
	h64.18c0.49,0,0.96,0.21,1.29,0.57l5.59,6.09c0.23,0.25,0.05,0.66-0.29,0.66h-77.5C12.62,24.77,12.44,24.35,12.68,24.09z"/>
<g id="wipers">
	<polyline id="left_wiper" class="st2" points="27.49,14.01 43.32,11.9 38.68,12.6 46.35,13.62 	"/>
	<polyline id="right_wiper" class="st2" points="53.27,14.01 69.1,11.9 64.47,12.6 72.13,13.62 	"/>
</g>
</svg>
