<svg id="ps-logo" xmlns="http://www.w3.org/2000/svg" viewBox="0 0 96.58504 74.75261"><defs><style>.cls-1{fill:#f2c218;}.cls-2{fill:#346eb3;}.cls-3{fill:#05aa9e;}.cls-4{fill:#dd1f2c;}.cls-5{fill:#010101;}</style>


</defs><title>playstation</title><path id="yellow" class="cls-1" d="M41.81685,66.76138l-5.20337,1.77835c-5.96119.17533-7.42227-1.2273-5.20143-2.86371l3.21436-1.2273L21.335,60.03218c-3.90443,1.37187-7.56932,4.30014-7.32761,8.41344.23982,4.17334,9.42946,5.17054,16.51725,6.35453A34.85576,34.85576,0,0,0,48.60426,73.3049V69.00534l-6.78741-2.244Zm35.60936,11.5773-7.63783-2.80032.00254,5.52272" transform="translate(-13.99602 -9.44767)"/>
<path id="green" class="cls-2" d="M97.85711,70.315l-.17064.62093c6.66251-1.81174,13.45824-5.79616,12.85747-8.47425-.96032-4.486-10.17418-7.31345-20.80573-8.12358-7.62877-.56116-12.62025.33535-19.94729,2.952l-.07919,3.98324,7.87033,2.47409,10.75352-3.68191c9.00023-1.63641,11.338,2.104,4.38323,3.97413l-8.0067,2.80526,13.145,3.47009ZM48.60426,50.50076l-5.82647,2.05607,5.82647,1.86847V50.50076Z" transform="translate(-13.99602 -9.44767)"/>
<path id="blue" class="cls-3" d="M69.78965,75.61134l7.63656,2.72734,22.28628-8.1041-13.9484-3.66243L69.79092,72.18756M48.60426,64.394l-6.78685,2.368,6.78685,2.24338V64.394Zm21.18539.38592-.07792-3.50659,7.87033,2.47409-7.79114,2.75515ZM48.58453,59.34049l.01973-4.91519-5.82647-1.86847-21.143,7.41427a2.55335,2.55335,0,0,1-.29982.06108l13.29146,4.41654" transform="translate(-13.99602 -9.44767)"/><path id="p" class="cls-4" d="M51.61677,9.44767V77.18214L66.9435,82.04621V25.23293c0-2.65563,1.18644-4.4385,3.10537-3.82431,2.49906.69567,2.98635,3.14841,2.98635,5.80752V49.90252c9.55583,4.61283,17.07022-.00275,17.07022-12.17649,0-12.49658-4.39656-18.04571-17.377-22.49154A183.31741,183.31741,0,0,0,51.61677,9.44767" transform="translate(-13.99602 -9.44767)"/><path id="circle" class="cls-5" d="M106.04863,84.20028a4.51367,4.51367,0,0,0,0-9.02734,4.52146,4.52146,0,0,0-4.51634,4.51559,4.52444,4.52444,0,0,0,4.51634,4.51175m-3.758-4.51175a3.75812,3.75812,0,0,1,7.51623,0,3.76454,3.76454,0,0,1-3.7582,3.75363,3.772,3.772,0,0,1-3.758-3.75363" transform="translate(-13.99602 -9.44767)"/><path id="r" class="cls-5" d="M108.26787,81.78618l-.14485-.22175-.03845-.38639-.0304-.64367a1.21179,1.21179,0,0,0-.17066-.66528l-.304-.2485.38-.37027a1.40112,1.40112,0,0,0,.19484-.76178,1.26055,1.26055,0,0,0-.742-1.24468,2.50629,2.50629,0,0,0-.94967-.1628h-2.34359v5.02339h.88338V80.04434h1.37176l.5338.08222.28347.5294.03571.80464.04286.39353.06354.193.02508.05731h.98355v-.29153Zm-.99416-3.23685-.21737.56859-.666.161h-1.38788V77.86263h1.47632l.48913.08405a.60885.60885,0,0,1,.30581.60265" transform="translate(-13.99602 -9.44767)"/></svg>