<svg id="Layer_1" data-name="Layer 1" xmlns="http://www.w3.org/2000/svg" viewBox="0 0 628.8368 156.42871"><defs>

<style>
.cls-1{fill:#010101;}
.cls-2{fill:#f2c218;}
.cls-3{fill:#346eb3;}
.cls-4{fill:#05aa9e;}
.cls-5{fill:#dd1f2c;}
.cls-6{fill:#231f20;}

.pslogo{
    animation: fadein 3s;
}

@keyframes fadein {
    from { opacity: 0.3; }
    to   { opacity: 1; }
}


</style




></defs><title>title</title><g id="header"><g id="ps-text"><path id="circle" class="cls-1" d="M631.48929,119.43792a4.94971,4.94971,0,0,0,3.52427-1.45638,4.96768,4.96768,0,0,0,0-7.05893,4.99323,4.99323,0,1,0-3.52427,8.51531m-4.165-4.99279a4.18115,4.18115,0,1,1,1.2281,2.937,4.12222,4.12222,0,0,1-1.2281-2.937" transform="translate(-8.40032 -8.12138)"/>

<path id="r" class="cls-1" d="M633.94356,116.76891l-.15793-.24042-.04467-.42244-.03781-.71456a1.32525,1.32525,0,0,0-.19238-.74534l-.3333-.26627.414-.40363a1.4899,1.4899,0,0,0,.21632-.85174,1.3514,1.3514,0,0,0-.81232-1.3637,2.52332,2.52332,0,0,0-1.051-.19416h-2.58319v5.563h.96184v-2.28245h1.51829l.59761.08916a.67794.67794,0,0,1,.3229.58741l.02585.89659.0394.43106.07914.213.03939.06525h1.07688v-.31938Zm-1.10605-3.57581a.71554.71554,0,0,1-.24393.63559,1.29393,1.29393,0,0,1-.72811.17166h-1.54238v-1.56983h1.63507l.53922.098a.68032.68032,0,0,1,.34013.66461" transform="translate(-8.40032 -8.12138)"/>

<path id="p" class="cls-1" d="M224.29258,55.97584l-26.9886-.00932-.19821.17939v63.10647l.19821.18554h10.93107l.19152-.18554V63.01507l.07457-.09884,12.5016-.02147c4.56,0,7.0547,4.58143,7.0547,12.93443,0,8.32888-2.49471,12.92843-7.0547,12.92843l-7.5183-.01213-.19749.195v6.541l.19749.20435h10.80814a13.82359,13.82359,0,0,0,10.21053-4.80724c3.19715-3.58952,4.88463-8.78316,4.88463-15.009,0-12.08778-5.92878-19.8938-15.09516-19.8938" transform="translate(-8.40032 -8.12138)"/>

<polygon id="l" class="cls-1" points="248.841 47.845 237.91 47.845 237.718 48.025 237.718 111.131 237.91 111.317 248.841 111.317 249.042 111.131 249.042 48.025 248.841 47.845"/>

<path id="a" class="cls-1" d="M304.9863,71.31916l-.21386-.20454H285.26521c-17.45746,0-19.68926,12.85809-19.68926,24.11364l.01882,9.74834c0,8.37461,5.19979,14.46132,12.38745,14.46132h10.61926l.1975-.18554v-6.54187l-.1975-.19064h-7.59305c-1.76222-.0343-4.11168-.77629-4.11766-6.77032V95.22826c0-6.99878.67411-11.45658,2.10816-13.99158,1.56473-2.81322,4.03782-3.19363,6.26364-3.19363l8.33152.00264.07986.096v41.11067l.17955.18554h10.93178l.201-.18554V71.31916Z" transform="translate(-8.40032 -8.12138)"/>

<path id="s" class="cls-1" d="M383.67632,82.38319l-5.398-.414c-4.019-.34-7.03835-2.57528-7.03835-9.22548,0-7.73462,3.49682-9.82748,8.09637-9.82748H394.244l.19592-.1975V56.14591l-.19592-.17939H377.79749c-10.18133,0-17.4309,5.97591-17.4309,17.89362v.4912c0,9.44444,5.78632,16.21476,14.40118,16.86389l5.38956.41137c4.06349.31868,6.59515,3.94777,6.59515,9.50986v1.5663c0,3.48822-.84506,9.82063-8.27841,9.82063h-15.4849l-.19908.18712v6.54187l.19908.18554h19.19471c5.94936,0,15.88676-2.3994,15.88676-18.54205,0-5.80936-1.36018-10.43107-4.0292-13.74835-2.31516-2.84418-5.697-4.40292-10.36512-4.76433" transform="translate(-8.40032 -8.12138)"/>

<path id="a-2" data-name="a" class="cls-1" d="M473.28968,71.31916l-.19574-.20454H453.5867c-17.45306,0-19.68572,12.85809-19.68572,24.11364v9.74834c0,8.37461,5.2091,14.46132,12.3899,14.46132h10.6277l.1924-.18554v-6.54187l-.1924-.19064h-7.59129c-1.76557-.0343-4.11168-.77629-4.11168-6.77032V95.22826c0-6.99878.65265-11.45658,2.092-13.99158,1.55943-2.81322,4.05662-3.19363,6.26713-3.19363l8.34173.00264.06542.096-.01389,41.11067.18906.18554h10.94375l.201-.18554Z" transform="translate(-8.40032 -8.12138)"/>

<path id="t" class="cls-1" d="M429.322,71.11462H417.49205l-.08247-.06173V63.11373l-.1787-.1975H406.28715l-.18555.1975v41.87676c0,8.37444,5.2005,14.44743,12.39678,14.44743h7.84032l.18378-.18554v-6.54187l-.18378-.19064h-4.81921c-1.23479-.0343-4.10991-.08935-4.10991-6.2705V78.09879l.08247-.07122c3.59638.01548,11.82994,0,11.82994,0l.19592-.19486V71.31916Z" transform="translate(-8.40032 -8.12138)"/>

<path id="t-2" data-name="t" class="cls-1" d="M505.68155,71.11462H493.85143l-.06173-.06173V63.11373l-.19926-.1975h-10.93l-.20277.1975v41.87676c0,8.37444,5.216,14.44743,12.41068,14.44743h7.82483l.2026-.18554v-6.54187l-.2026-.19064h-4.82959c-1.19873-.0343-4.07387-.08935-4.08424-6.2705V78.09879l.06192-.07122c3.62732.01548,11.8403,0,11.8403,0l.18889-.19486V71.31916Z" transform="translate(-8.40032 -8.12138)"/>

<polygon id="i" class="cls-1" points="515.366 62.993 504.43 62.993 504.24 63.198 504.24 111.131 504.43 111.317 515.366 111.317 515.562 111.131 515.562 63.198 515.366 62.993"/>

<polygon id="i-dot" class="cls-1" points="515.366 47.845 504.43 47.845 504.24 48.025 504.24 57.187 504.43 57.386 515.366 57.386 515.562 57.187 515.562 48.025 515.366 47.845"/>

<path id="n" class="cls-1" d="M599.38426,71.11462H579.87019l-.19418.20454-.012,47.93322.20262.18554h10.92665l.19241-.18554-.01724-41.13547.07562-.07122,8.34015-.00264c2.22582,0,4.70929.35209,6.27225,2.955,1.44619,2.35631,2.12118,6.47661,2.12118,12.97557,0,.2937-.019,25.27878-.019,25.27878l.182.18554h10.93019l.19926-.18554V95.22826c0-11.25309-2.22933-24.11364-19.68591-24.11364" transform="translate(-8.40032 -8.12138)"/>

<path id="o" class="cls-1" d="M551.83391,71.11462c-18.24835,0-20.59781,12.92245-20.59781,24.18152,0,11.25028,2.34946,24.18293,20.591,24.18293,18.27754,0,20.60976-12.93265,20.60976-24.18293,0-11.25907-2.33222-24.18152-20.6029-24.18152m6.94724,38.23131c-1.73637,2.8236-4.48609,3.20489-6.94724,3.20489-2.45428,0-5.20226-.38129-6.93687-3.20489-1.57334-2.56244-2.30672-7.01935-2.30672-14.04979v-.05839c0-8.31622,1.0306-13.04011,3.32677-15.29336,1.34822-1.33539,3.12241-1.90134,5.91682-1.90134,2.78913,0,4.56156.566,5.927,1.90134,2.28948,2.25325,3.33029,6.99613,3.31657,15.35175,0,7.03044-.71966,11.50107-2.29635,14.04979" transform="translate(-8.40032 -8.12138)"/>

<polygon id="y" class="cls-1" points="302.744 62.993 302.608 63.173 318.808 110.683 318.808 111.069 309.696 134.602 309.811 134.796 319.32 134.796 319.596 134.602 348.08 63.173 347.97 62.993 337.579 62.993 337.313 63.173 325.244 94.399 325.101 94.399 314.482 63.173 314.219 62.993 302.744 62.993"/></g>

<g id="ps-logo-color" class="pslogo">
<path id="yellow" class="cls-2" d="M59.16777,127.11245l-9.49512,3.24513c-10.878.31994-13.54415-2.23958-9.49157-5.2257l5.86558-2.23958L21.7924,114.833c-7.1248,2.50339-13.81249,7.8469-13.37141,15.35285.43762,7.61551,17.20686,9.4352,30.14065,11.59574a63.60469,63.60469,0,0,0,32.99178-2.72853v-7.84584l-12.38565-4.09477ZM124.1477,148.2387l-13.9375-5.11.00463,10.07787" transform="translate(-8.40032 -8.12138)"/>
<path id="green" class="cls-3" d="M161.43,133.597l-.3114,1.13307c12.15775-3.306,24.55859-10.57682,23.46231-15.46379-1.75239-8.18605-18.56584-13.34559-37.96628-14.82392-13.921-1.024-23.02943.61195-36.39981,5.38682l-.14451,7.26861,14.36178,4.51472,19.623-6.71875c16.42361-2.98612,20.68949,3.83928,7.99851,7.252L137.443,127.26482,161.43,133.597Zm-89.87659-36.157L60.92128,101.192l10.63214,3.4096V97.44006Z" transform="translate(-8.40032 -8.12138)"/>

<path id="blue" class="cls-4" d="M110.21252,143.26185l13.93518,4.97685,40.668-14.78836-25.453-6.6832-29.14783,10.247M71.55342,122.79242,59.16879,127.1135l12.38463,4.09372v-8.4148Zm38.6591.70421-.1422-6.39881,14.36178,4.51472-14.21727,5.0276ZM71.51741,113.5708l.036-8.96922L60.92128,101.192,22.33952,114.72154a4.65979,4.65979,0,0,1-.54712.11146l24.25426,8.0593" transform="translate(-8.40032 -8.12138)"/>

<path id="p-2" data-name="p" class="cls-5" d="M77.05065,22.52641V146.12824l27.9682,8.876V51.33135c0-4.846,2.165-8.09937,5.66669-6.9786,4.56028,1.26945,5.44948,5.74522,5.44948,10.59756V96.3484c17.43748,8.4175,31.14974-.005,31.14974-22.21964,0-22.80376-8.02285-32.92981-31.70945-41.04255-9.31-3.14244-26.63324-8.357-38.52466-10.5598" transform="translate(-8.40032 -8.12138)"/>


<path id="circle-2" data-name="circle" class="cls-1" d="M176.37789,158.93494a8.23655,8.23655,0,0,0,0-16.47309,8.25076,8.25076,0,0,0-8.24141,8.24,8.25614,8.25614,0,0,0,8.24141,8.233m-6.85766-8.233a6.85781,6.85781,0,0,1,13.71561,0,6.86953,6.86953,0,0,1-6.85795,6.84962,6.88324,6.88324,0,0,1-6.85766-6.84962" transform="translate(-8.40032 -8.12138)"/>
<path id="r-2" data-name="r" class="cls-1" d="M180.42756,154.52969l-.26432-.40465-.07018-.70508-.05547-1.17457a2.21117,2.21117,0,0,0-.31142-1.214l-.5547-.45346.69336-.67567a2.55679,2.55679,0,0,0,.35555-1.39011,2.30024,2.30024,0,0,0-1.354-2.27128,4.57341,4.57341,0,0,0-1.73295-.29707h-4.27659v9.16668h1.612v-3.7593h2.5032l.97407.15.51728.96605.06516,1.4683.07822.71811.11593.35221.04578.10459h1.79477v-.532Zm-1.81414-5.9066-.39667,1.03757-1.21534.29373h-2.5326V147.37h2.694l.89256.15338a1.111,1.111,0,0,1,.558,1.09972" transform="translate(-8.40032 -8.12138)"/>
</g>
<path class="cls-6" d="M220.21466,12.20146h-9.84082V8.64922h23.9541v3.55224h-9.88916V41.0042h-4.22412Z" transform="translate(-8.40032 -8.12138)"/>
<path class="cls-6" d="M240.66192,8.64922V22.18681h15.64942V8.64922h4.22412v32.355h-4.22412V25.83476H240.66192V41.0042h-4.17627V8.64922Z" transform="translate(-8.40032 -8.12138)"/>
<path class="cls-6" d="M283.095,25.83476H270.51788v11.665H284.535v3.5044H266.34161V8.64922h17.47363v3.50439H270.51788v10.2251H283.095Z" transform="translate(-8.40032 -8.12138)"/>
<path class="cls-6" d="M297.25274,9.08135a40.48815,40.48815,0,0,1,7.63233-.67188c4.17675,0,6.86474.71973,8.88086,2.35205a6.784,6.784,0,0,1,2.68847,5.7124c0,3.12061-2.06445,5.85645-5.47265,7.105v.09571c3.07226.76806,6.67285,3.3125,6.67285,8.11279a8.72225,8.72225,0,0,1-2.73633,6.48047c-2.25635,2.06445-5.90479,3.02441-11.18506,3.02441a48.74781,48.74781,0,0,1-6.48047-.38427Zm4.17627,13.249h3.79248c4.416,0,7.0083-2.3042,7.0083-5.42432,0-3.79248-2.88037-5.28027-7.10449-5.28027a17.90639,17.90639,0,0,0-3.69629.28809Zm0,15.50537a22.30363,22.30363,0,0,0,3.5044.19238c4.32031,0,8.30468-1.58447,8.30468-6.28857,0-4.41651-3.79248-6.24072-8.353-6.24072H301.429Z" transform="translate(-8.40032 -8.12138)"/>
<path class="cls-6" d="M338.58087,25.83476H326.00421v11.665H340.0213v3.5044H321.82794V8.64922h17.47363v3.50439H326.00421v10.2251h12.57666Z" transform="translate(-8.40032 -8.12138)"/>
<path class="cls-6" d="M343.42755,35.91582a14.80164,14.80164,0,0,0,7.48828,2.1123c4.27246,0,6.76855-2.25634,6.76855-5.5205,0-3.02442-1.72754-4.75245-6.09668-6.43262-5.28027-1.87207-8.54394-4.6084-8.54394-9.16895,0-5.04052,4.17578-8.78467,10.46484-8.78467a14.7052,14.7052,0,0,1,7.15235,1.584l-1.15235,3.4082a12.8873,12.8873,0,0,0-6.14453-1.53613c-4.416,0-6.09668,2.64062-6.09668,4.84863,0,3.02442,1.96875,4.51221,6.43262,6.24072,5.47265,2.11182,8.25683,4.75245,8.25683,9.5044,0,4.99268-3.69628,9.313-11.3291,9.313a16.725,16.725,0,0,1-8.25683-2.064Z" transform="translate(-8.40032 -8.12138)"/><path class="cls-6" d="M372.37188,12.20146h-9.84082V8.64922h23.9541v3.55224h-9.88964V41.0042h-4.22364Z" transform="translate(-8.40032 -8.12138)"/><path class="cls-6" d="M396.80255,35.91582a14.80164,14.80164,0,0,0,7.48828,2.1123c4.27246,0,6.76855-2.25634,6.76855-5.5205,0-3.02442-1.72754-4.75245-6.09668-6.43262-5.28027-1.87207-8.54394-4.6084-8.54394-9.16895,0-5.04052,4.17578-8.78467,10.46484-8.78467a14.7052,14.7052,0,0,1,7.15235,1.584l-1.15235,3.4082a12.8873,12.8873,0,0,0-6.14453-1.53613c-4.416,0-6.09668,2.64062-6.09668,4.84863,0,3.02442,1.96875,4.51221,6.43262,6.24072,5.47265,2.11182,8.25683,4.75245,8.25683,9.5044,0,4.99268-3.69628,9.313-11.3291,9.313a16.725,16.725,0,0,1-8.25683-2.064Z" transform="translate(-8.40032 -8.12138)"/><path class="cls-6" d="M436.35528,25.83476H423.77813v11.665h14.01758v3.5044H419.60235V8.64922H437.076v3.50439H423.77813v10.2251h12.57715Z" transform="translate(-8.40032 -8.12138)"/><path class="cls-6" d="M441.77813,8.64922h4.17578V37.4998h13.8252v3.5044h-18.001Z" transform="translate(-8.40032 -8.12138)"/><path class="cls-6" d="M462.993,8.64922h4.17675V37.4998h13.8252v3.5044H462.993Z" transform="translate(-8.40032 -8.12138)"/><path class="cls-6" d="M488.38458,8.64922v32.355h-4.17676V8.64922Z" transform="translate(-8.40032 -8.12138)"/><path class="cls-6" d="M494.24005,41.0042V8.64922h4.56054l10.36914,16.36963a91.59384,91.59384,0,0,1,5.8086,10.51269l.0957-.04785c-.38379-4.32031-.48047-8.25684-.48047-13.29688V8.64922h3.93653v32.355h-4.22461L504.033,24.58672a102.84973,102.84973,0,0,1-6.04883-10.80078l-.14356.04785c.24024,4.08056.33594,7.96875.33594,13.34521V41.0042Z" transform="translate(-8.40032 -8.12138)"/><path class="cls-6" d="M549.00958,39.56426a30.1472,30.1472,0,0,1-9.93652,1.77587c-4.89649,0-8.92872-1.248-12.09668-4.27246-2.78418-2.688-4.5127-7.0083-4.5127-12.04882.04785-9.64893,6.67285-16.70557,17.52148-16.70557a19.99438,19.99438,0,0,1,8.06446,1.48828l-1.00781,3.4082a16.77316,16.77316,0,0,0-7.15235-1.39209c-7.87305,0-13.00976,4.89649-13.00976,13.00928,0,8.2085,4.94433,13.05713,12.48144,13.05713a13.61865,13.61865,0,0,0,5.56836-.86426V27.3709h-6.57617V24.01054h10.65625Z" transform="translate(-8.40032 -8.12138)"/><path class="cls-6" d="M359.992,162.99248a23.84515,23.84515,0,0,1-7.86523,1.40625c-3.875,0-7.06641-.98828-9.57422-3.38184a13.17615,13.17615,0,0,1-3.57129-9.53711c.03808-7.63672,5.28125-13.22168,13.86816-13.22168a15.827,15.827,0,0,1,6.38281,1.17774l-.79785,2.69824a13.26829,13.26829,0,0,0-5.66113-1.10254c-6.23144,0-10.29687,3.876-10.29687,10.29688,0,6.49707,3.91406,10.334,9.8789,10.334a10.78,10.78,0,0,0,4.40723-.68359v-7.63672h-5.20508v-2.66016H359.992Z" transform="translate(-8.40032 -8.12138)"/><path class="cls-6" d="M368.04962,156.07744l-2.65918,8.05469h-3.41992l8.70117-25.6084H374.661l8.73925,25.6084H379.866l-2.73535-8.05469Zm8.39746-2.584-2.50781-7.37011c-.57032-1.67188-.9502-3.19141-1.33008-4.67383H372.533c-.37989,1.51953-.79786,3.07812-1.291,4.63574l-2.50781,7.4082Z" transform="translate(-8.40032 -8.12138)"/><path class="cls-6" d="M407.45391,152.886c-.18945-3.57129-.418-7.86523-.37988-11.05664h-.11426c-.874,3.002-1.9375,6.19336-3.22949,9.72656l-4.52148,12.42481H396.702l-4.1416-12.19629c-1.21582-3.60937-2.24219-6.915-2.96387-9.95508h-.07617c-.07617,3.19141-.26562,7.48535-.49414,11.32227l-.68359,10.98047h-3.15332l1.78515-25.6084h4.21778l4.36914,12.38672c1.06445,3.15332,1.93847,5.96484,2.584,8.625h.11426c.64551-2.584,1.55762-5.39551,2.69726-8.625l4.55957-12.38672h4.21778l1.5957,25.6084H408.1004Z" transform="translate(-8.40032 -8.12138)"/><path class="cls-6" d="M428.54473,152.12627h-9.9541v9.23242h11.09375v2.77344H415.285v-25.6084h13.83008v2.77441H418.59063v8.09278h9.9541Z" transform="translate(-8.40032 -8.12138)"/><path class="cls-6" d="M432.38458,160.10478a11.71,11.71,0,0,0,5.92676,1.67188c3.38183,0,5.35742-1.78613,5.35742-4.36914,0-2.39356-1.36719-3.76172-4.8252-5.0918-4.17968-1.48144-6.76269-3.64746-6.76269-7.25684,0-3.98925,3.30566-6.95312,8.28222-6.95312a11.638,11.638,0,0,1,5.66114,1.25391l-.91114,2.69824a10.19875,10.19875,0,0,0-4.86328-1.21582c-3.49609,0-4.82617,2.08984-4.82617,3.83691,0,2.39356,1.55859,3.57129,5.0918,4.93945,4.33105,1.67188,6.53515,3.76172,6.53515,7.52247,0,3.95214-2.92578,7.37109-8.96679,7.37109a13.23252,13.23252,0,0,1-6.53516-1.63379Z" transform="translate(-8.40032 -8.12138)"/><path class="cls-6" d="M479.23419,151.06181c0,8.81543-5.35742,13.48829-11.89258,13.48829-6.7627,0-11.51172-5.24317-11.51172-12.99415,0-8.13085,5.05274-13.45019,11.8916-13.45019C474.7127,138.10576,479.23419,143.46318,479.23419,151.06181Zm-19.8711.418c0,5.47168,2.96387,10.37305,8.16895,10.37305,5.24316,0,8.20605-4.8252,8.20605-10.63867,0-5.09082-2.65918-10.41016-8.168-10.41016C462.09845,140.804,459.36309,145.85674,459.36309,151.47978Z" transform="translate(-8.40032 -8.12138)"/><path class="cls-6" d="M482.39141,138.52373h13.792v2.77441H485.69708v8.51074h9.68848v2.73536h-9.68848v11.58789h-3.30567Z" transform="translate(-8.40032 -8.12138)"/><path class="cls-6" d="M510.81524,156.07744l-2.66015,8.05469h-3.41895l8.7002-25.6084h3.98925l8.73926,25.6084h-3.53418l-2.73535-8.05469Zm8.39649-2.584-2.50782-7.37011c-.56933-1.67188-.95019-3.19141-1.33007-4.67383h-.0752c-.37988,1.51953-.79785,3.07812-1.292,4.63574l-2.50781,7.4082Z" transform="translate(-8.40032 -8.12138)"/><path class="cls-6" d="M528.78888,138.52373h3.30566v22.835h10.94238v2.77344h-14.248Z" transform="translate(-8.40032 -8.12138)"/><path class="cls-6" d="M545.58477,138.52373h3.30567v22.835h10.94238v2.77344h-14.248Z" transform="translate(-8.40032 -8.12138)"/><path class="cls-6" d="M572.60138,141.33525h-7.78907v-2.81152h18.959v2.81152h-7.82617v22.79688h-3.34375Z" transform="translate(-8.40032 -8.12138)"/><path class="cls-6" d="M588.78985,138.52373v25.6084h-3.30566v-25.6084Z" transform="translate(-8.40032 -8.12138)"/><path class="cls-6" d="M615.00665,152.886c-.19043-3.57129-.418-7.86523-.37988-11.05664h-.11426c-.874,3.002-1.9375,6.19336-3.22949,9.72656l-4.52149,12.42481h-2.50781l-4.1416-12.19629c-1.21582-3.60937-2.24121-6.915-2.96289-9.95508h-.07617c-.07618,3.19141-.26563,7.48535-.49415,11.32227l-.68359,10.98047H592.742l1.78516-25.6084h4.21777l4.36914,12.38672c1.06348,3.15332,1.9375,5.96484,2.584,8.625h.11328c.64648-2.584,1.55761-5.39551,2.69824-8.625l4.55859-12.38672H617.286l1.5957,25.6084h-3.22949Z" transform="translate(-8.40032 -8.12138)"/><path class="cls-6" d="M636.09747,152.12627h-9.9541v9.23242h11.09375v2.77344H622.8377v-25.6084h13.83008v2.77441H626.14337v8.09278h9.9541Z" transform="translate(-8.40032 -8.12138)"/></g></svg>