<?xml version="1.0" encoding="utf-8"?>
<!-- Generator: Adobe Illustrator 24.0.0, SVG Export Plug-In . SVG Version: 6.00 Build 0)  -->
<svg version="1.1" id="Layer_1" xmlns="http://www.w3.org/2000/svg" xmlns:xlink="http://www.w3.org/1999/xlink" x="0px" y="0px"
	 viewBox="0 0 965.39 170.1" style="enable-background:new 0 0 965.39 170.1;" xml:space="preserve">
<style type="text/css">
	.st0{fill:url(#SVGID_1_);stroke:#666666;stroke-width:4;stroke-miterlimit:10;}
	.st1{fill:url(#SVGID_2_);stroke:#666666;stroke-width:4;stroke-miterlimit:10;}
	.st2{fill:url(#SVGID_3_);stroke:#666666;stroke-width:4;stroke-miterlimit:10;}
	.st3{fill:url(#SVGID_4_);stroke:#666666;stroke-width:4;stroke-miterlimit:10;}
	.st4{fill:url(#SVGID_5_);stroke:#666666;stroke-width:4;stroke-miterlimit:10;}
	.st5{fill:url(#SVGID_6_);stroke:#666666;stroke-width:4;stroke-miterlimit:10;}
	.st6{fill:url(#SVGID_7_);stroke:#666666;stroke-width:4;stroke-miterlimit:10;}
	.st7{fill:url(#SVGID_8_);stroke:#666666;stroke-width:4;stroke-miterlimit:10;}
	.st8{fill:url(#SVGID_9_);stroke:#666666;stroke-width:4;stroke-miterlimit:10;}
	.st9{fill:url(#SVGID_10_);stroke:#666666;stroke-width:4;stroke-miterlimit:10;}
	.st10{fill:url(#SVGID_11_);stroke:#666666;stroke-width:4;stroke-miterlimit:10;}
	.st11{fill:url(#SVGID_12_);stroke:#666666;stroke-width:4;stroke-miterlimit:10;}
	.st12{fill:url(#SVGID_13_);stroke:#666666;stroke-width:4;stroke-miterlimit:10;}
	.st13{fill:url(#SVGID_14_);stroke:#666666;stroke-width:4;stroke-miterlimit:10;}
	.st14{fill:url(#SVGID_15_);stroke:#666666;stroke-width:4;stroke-miterlimit:10;}
	.st15{fill:url(#SVGID_16_);stroke:#666666;stroke-width:4;stroke-miterlimit:10;}
	.st16{fill:url(#SVGID_17_);stroke:#666666;stroke-width:4;stroke-miterlimit:10;}
</style>
<g>
	<linearGradient id="SVGID_1_" gradientUnits="userSpaceOnUse" x1="49" y1="68.1001" x2="49" y2="2">
		<stop  offset="3.995842e-07" style="stop-color:#B3B3B3"/>
		<stop  offset="1" style="stop-color:#FFFFFF"/>
	</linearGradient>
	<path class="st0" d="M72.4,68.1V39.9L60.2,68.1H37.7L25.4,39.9v28.2H2V2h28.3l19.6,41.1L69.5,2H96v66.1H72.4z"/>
	<linearGradient id="SVGID_2_" gradientUnits="userSpaceOnUse" x1="146.9998" y1="68.1001" x2="146.9998" y2="2">
		<stop  offset="3.995842e-07" style="stop-color:#B3B3B3"/>
		<stop  offset="1" style="stop-color:#FFFFFF"/>
	</linearGradient>
	<path class="st1" d="M133.8,68.1v-28L106.2,2h31.4l10.3,17.2L158.3,2h29.5L159,40.1v28H133.8z"/>
	<linearGradient id="SVGID_3_" gradientUnits="userSpaceOnUse" x1="273.9973" y1="68.1001" x2="273.9973" y2="2">
		<stop  offset="3.995842e-07" style="stop-color:#B3B3B3"/>
		<stop  offset="1" style="stop-color:#FFFFFF"/>
	</linearGradient>
	<path class="st2" d="M261.6,43.2v24.9h-25.4V2h75.6v16.8h-50.2v8h26.6v16.4H261.6z"/>
	<linearGradient id="SVGID_4_" gradientUnits="userSpaceOnUse" x1="348.0964" y1="68.1001" x2="348.0964" y2="2">
		<stop  offset="3.995842e-07" style="stop-color:#B3B3B3"/>
		<stop  offset="1" style="stop-color:#FFFFFF"/>
	</linearGradient>
	<path class="st3" d="M364.2,68.1l-3.6-9.6h-24l-3.7,9.6h-27.7L332,2h32.2L391,68.1H364.2z M348.5,21.2l-7.1,21.1h14.2L348.5,21.2z"
		/>
	<linearGradient id="SVGID_5_" gradientUnits="userSpaceOnUse" x1="426.4958" y1="68.1001" x2="426.4958" y2="2">
		<stop  offset="3.995842e-07" style="stop-color:#B3B3B3"/>
		<stop  offset="1" style="stop-color:#FFFFFF"/>
	</linearGradient>
	<path class="st4" d="M410.4,68.1L383.6,2h28.5l15.3,42.1L443.2,2h26.2l-27.2,66.1H410.4z"/>
	<linearGradient id="SVGID_6_" gradientUnits="userSpaceOnUse" x1="517.5457" y1="68.1001" x2="517.5457" y2="2">
		<stop  offset="3.995842e-07" style="stop-color:#B3B3B3"/>
		<stop  offset="1" style="stop-color:#FFFFFF"/>
	</linearGradient>
	<path class="st5" d="M500.7,68.1c-4.73,0-8.7-0.22-11.9-0.65c-3.2-0.43-5.78-1.22-7.75-2.35c-1.97-1.13-3.38-2.73-4.25-4.8
		c-0.87-2.07-1.3-4.73-1.3-8V17.8c0-3.27,0.43-5.93,1.3-8c0.87-2.07,2.3-3.68,4.3-4.85c2-1.17,4.6-1.95,7.8-2.35
		c3.2-0.4,7.13-0.6,11.8-0.6h33.5c4.73,0,8.72,0.2,11.95,0.6C549.38,3,552,3.78,554,4.95c2,1.17,3.43,2.78,4.3,4.85
		c0.87,2.07,1.3,4.73,1.3,8v34.5c0,3.33-0.43,6.02-1.3,8.05c-0.87,2.03-2.3,3.63-4.3,4.8c-2,1.17-4.62,1.95-7.85,2.35
		c-3.23,0.4-7.22,0.6-11.95,0.6H500.7z M534.5,23.3c0-1.73-0.5-2.92-1.5-3.55c-1-0.63-2.97-0.95-5.9-0.95h-19
		c-2.8,0-4.73,0.3-5.8,0.9c-1.07,0.6-1.6,1.8-1.6,3.6v23.5c0,1.67,0.47,2.83,1.4,3.5c0.93,0.67,2.93,1,6,1h19
		c2.93,0,4.9-0.32,5.9-0.95c1-0.63,1.5-1.82,1.5-3.55V23.3z"/>
	<linearGradient id="SVGID_7_" gradientUnits="userSpaceOnUse" x1="614.9453" y1="68.1001" x2="614.9453" y2="2">
		<stop  offset="3.995842e-07" style="stop-color:#B3B3B3"/>
		<stop  offset="1" style="stop-color:#FFFFFF"/>
	</linearGradient>
	<path class="st6" d="M598.7,68.1c-4.73,0-8.72-0.22-11.95-0.65c-3.23-0.43-5.85-1.23-7.85-2.4c-2-1.17-3.43-2.77-4.3-4.8
		c-0.87-2.03-1.3-4.68-1.3-7.95V2h25.3v44.8c0,1.73,0.5,2.92,1.5,3.55c1,0.63,2.96,0.95,5.9,0.95h18.2c2.93,0,4.88-0.32,5.85-0.95
		c0.97-0.63,1.45-1.82,1.45-3.55V2h25.1v50.3c0,3.2-0.42,5.83-1.25,7.9c-0.83,2.07-2.23,3.68-4.2,4.85c-1.97,1.17-4.57,1.97-7.8,2.4
		c-3.23,0.43-7.22,0.65-11.95,0.65H598.7z"/>
	<linearGradient id="SVGID_8_" gradientUnits="userSpaceOnUse" x1="710.4941" y1="68.1001" x2="710.4941" y2="2">
		<stop  offset="3.995842e-07" style="stop-color:#B3B3B3"/>
		<stop  offset="1" style="stop-color:#FFFFFF"/>
	</linearGradient>
	<path class="st7" d="M724.99,68.1v-18c0-1.53-0.4-2.67-1.2-3.4c-0.8-0.73-2.47-1.1-5-1.1h-22.7v22.5h-25.2V2h55.9
		c4.66,0,8.5,0.27,11.5,0.8c3,0.53,5.33,1.42,7,2.65c1.66,1.23,2.81,2.85,3.45,4.85c0.63,2,0.95,4.5,0.95,7.5v10.3
		c0,2.93-0.65,5.22-1.95,6.85c-1.3,1.63-3.02,2.75-5.15,3.35c1.93,0.47,3.67,1.48,5.2,3.05c1.53,1.57,2.3,3.72,2.3,6.45v20.3H724.99
		z M724.99,22.7c0-1.27-0.29-2.23-0.85-2.9c-0.57-0.67-1.88-1-3.95-1h-24.1v11.6h24.1c2.2,0,3.55-0.37,4.05-1.1
		c0.5-0.73,0.75-1.87,0.75-3.4V22.7z"/>
	<linearGradient id="SVGID_9_" gradientUnits="userSpaceOnUse" x1="775.9937" y1="68.1001" x2="775.9937" y2="2">
		<stop  offset="3.995842e-07" style="stop-color:#B3B3B3"/>
		<stop  offset="1" style="stop-color:#FFFFFF"/>
	</linearGradient>
	<path class="st8" d="M763.39,68.1V2h25.2v66.1H763.39z"/>
	<linearGradient id="SVGID_10_" gradientUnits="userSpaceOnUse" x1="836.7935" y1="68.1001" x2="836.7935" y2="2">
		<stop  offset="3.995842e-07" style="stop-color:#B3B3B3"/>
		<stop  offset="1" style="stop-color:#FFFFFF"/>
	</linearGradient>
	<path class="st9" d="M824.19,68.1V18.8h-24V2h73.2v16.8h-23.9v49.3H824.19z"/>
	<linearGradient id="SVGID_11_" gradientUnits="userSpaceOnUse" x1="924.1924" y1="68.1001" x2="924.1924" y2="2">
		<stop  offset="3.995842e-07" style="stop-color:#B3B3B3"/>
		<stop  offset="1" style="stop-color:#FFFFFF"/>
	</linearGradient>
	<path class="st10" d="M884.99,68.1V2h78.4v16.8h-53v8.3h25.9v15.8h-25.9v8.4h53v16.8H884.99z"/>
	<linearGradient id="SVGID_12_" gradientUnits="userSpaceOnUse" x1="276.8481" y1="168.0996" x2="276.8481" y2="102">
		<stop  offset="3.995842e-07" style="stop-color:#B3B3B3"/>
		<stop  offset="1" style="stop-color:#FFFFFF"/>
	</linearGradient>
	<path class="st11" d="M264.25,168.1v-49.3h-24V102h73.2v16.8h-23.9v49.3H264.25z"/>
	<linearGradient id="SVGID_13_" gradientUnits="userSpaceOnUse" x1="364.7471" y1="168.0996" x2="364.7471" y2="102">
		<stop  offset="3.995842e-07" style="stop-color:#B3B3B3"/>
		<stop  offset="1" style="stop-color:#FFFFFF"/>
	</linearGradient>
	<path class="st12" d="M379.15,168.1v-24.7h-28.7v24.7h-25.4V102h25.4v24.6h28.7V102h25.3v66.1H379.15z"/>
	<linearGradient id="SVGID_14_" gradientUnits="userSpaceOnUse" x1="431.647" y1="168.0996" x2="431.647" y2="102">
		<stop  offset="3.995842e-07" style="stop-color:#B3B3B3"/>
		<stop  offset="1" style="stop-color:#FFFFFF"/>
	</linearGradient>
	<path class="st13" d="M419.05,168.1V102h25.2v66.1H419.05z"/>
	<linearGradient id="SVGID_15_" gradientUnits="userSpaceOnUse" x1="497.8962" y1="168.0996" x2="497.8962" y2="102">
		<stop  offset="3.995842e-07" style="stop-color:#B3B3B3"/>
		<stop  offset="1" style="stop-color:#FFFFFF"/>
	</linearGradient>
	<path class="st14" d="M512.15,168.1l-29.3-31.7v31.7h-24V102h26l28,33.5V102h24.1v66.1H512.15z"/>
	<linearGradient id="SVGID_16_" gradientUnits="userSpaceOnUse" x1="590.7456" y1="168.0996" x2="590.7456" y2="102">
		<stop  offset="3.995842e-07" style="stop-color:#B3B3B3"/>
		<stop  offset="1" style="stop-color:#FFFFFF"/>
	</linearGradient>
	<path class="st15" d="M576.55,168.1c-4.8,0-8.83-0.22-12.1-0.65c-3.27-0.43-5.88-1.25-7.85-2.45c-1.97-1.2-3.37-2.82-4.2-4.85
		c-0.83-2.03-1.25-4.65-1.25-7.85v-34.5c0-3.13,0.42-5.72,1.25-7.75c0.83-2.03,2.23-3.65,4.2-4.85c1.97-1.2,4.57-2.03,7.8-2.5
		c3.23-0.46,7.28-0.7,12.15-0.7h53.8v16.8h-46.6c-3.13,0-5.17,0.35-6.1,1.05c-0.93,0.7-1.4,1.88-1.4,3.55v23.4
		c0,1.67,0.5,2.83,1.5,3.5c1,0.67,3,1,6,1h22.3v-8.2h-22.1v-16.5h46.4v41.5H576.55z"/>
	<linearGradient id="SVGID_17_" gradientUnits="userSpaceOnUse" x1="682.6953" y1="168.0996" x2="682.6953" y2="102">
		<stop  offset="3.995842e-07" style="stop-color:#B3B3B3"/>
		<stop  offset="1" style="stop-color:#FFFFFF"/>
	</linearGradient>
	<path class="st16" d="M643.25,168.1v-16.8h52.1c1.33,0,2.21-0.33,2.65-1c0.43-0.67,0.65-1.77,0.65-3.3c0-1.33-0.25-2.28-0.75-2.85
		c-0.5-0.57-1.35-0.85-2.55-0.85h-33c-6.33,0-11.1-1.22-14.3-3.65c-3.2-2.43-4.8-5.82-4.8-10.15v-11.9c0-2.8,0.32-5.2,0.95-7.2
		c0.63-2,1.75-3.62,3.35-4.85c1.6-1.23,3.82-2.13,6.65-2.7c2.83-0.57,6.45-0.85,10.85-0.85h50.7v16.6h-45.7c-1.33,0-2.2,0.33-2.6,1
		c-0.4,0.67-0.6,1.67-0.6,3c0,1.33,0.27,2.33,0.8,3c0.53,0.67,1.47,1,2.8,1h32.5c6.8,0,11.7,1.37,14.7,4.1c3,2.73,4.5,6.6,4.5,11.6
		v10c0,2.73-0.35,5.08-1.05,7.05c-0.7,1.97-1.87,3.6-3.5,4.9c-1.63,1.3-3.77,2.27-6.4,2.9c-2.63,0.63-5.88,0.95-9.75,0.95H643.25z"
		/>
</g>
</svg>
